<?xml version="1.0" encoding="UTF-8" standalone="no"?>
<svg
   xmlns:dc="http://purl.org/dc/elements/1.1/"
   xmlns:cc="http://creativecommons.org/ns#"
   xmlns:rdf="http://www.w3.org/1999/02/22-rdf-syntax-ns#"
   xmlns:svg="http://www.w3.org/2000/svg"
   xmlns="http://www.w3.org/2000/svg"
   xmlns:sodipodi="http://sodipodi.sourceforge.net/DTD/sodipodi-0.dtd"
   xmlns:inkscape="http://www.inkscape.org/namespaces/inkscape"
   viewBox="0 0 511.99998 511.99998"
   height="512"
   width="512"
   xml:space="preserve"
   id="svg2"
   version="1.1"
   sodipodi:docname="app-icon.svg"
   inkscape:version="0.92.4 (5da689c313, 2019-01-14)"
   inkscape:export-filename="D:\Projects\React\RuangHijauPontianak\assets\app-icon.png"
   inkscape:export-xdpi="96"
   inkscape:export-ydpi="96"><sodipodi:namedview
     pagecolor="#ffffff"
     bordercolor="#666666"
     borderopacity="1"
     objecttolerance="10"
     gridtolerance="10"
     guidetolerance="10"
     inkscape:pageopacity="0"
     inkscape:pageshadow="2"
     inkscape:window-width="1366"
     inkscape:window-height="705"
     id="namedview138"
     showgrid="false"
     inkscape:zoom="0.44249997"
     inkscape:cx="146.98774"
     inkscape:cy="332.26353"
     inkscape:window-x="-8"
     inkscape:window-y="-8"
     inkscape:window-maximized="1"
     inkscape:current-layer="svg2" /><metadata
     id="metadata8"><rdf:RDF><cc:Work
         rdf:about=""><dc:format>image/svg+xml</dc:format><dc:type
           rdf:resource="http://purl.org/dc/dcmitype/StillImage" /><dc:title></dc:title></cc:Work></rdf:RDF></metadata><defs
     id="defs6"><linearGradient
       id="linearGradient18"
       spreadMethod="pad"
       gradientTransform="matrix(1069.944,1071.944,-1071.944,1069.944,0.49739599,-0.49727332)"
       gradientUnits="userSpaceOnUse"
       y2="0"
       x2="1"
       y1="0"
       x1="0"><stop
         id="stop14"
         offset="0"
         style="stop-opacity:1;stop-color:#ffffff" /><stop
         id="stop16"
         offset="1"
         style="stop-opacity:1;stop-color:#d7d9d6" /></linearGradient><clipPath
       id="clipPath90"
       clipPathUnits="userSpaceOnUse"><path
         id="path88"
         d="m 7053.01,5535.98 c 0,0 -744.49,437.47 -931.12,1218.98 0,0 222.91,-600.9 680,-957.2 0,0 225.75,429.3 24.05,679.39 -201.7,250.08 -828.38,496.5 -852.35,945.86 0,0 -485.99,-1499.63 756.18,-1709.29 0,0 207.96,-196.1 305.66,-251.87 0,0 66.74,20.05 17.58,74.13 z"
         inkscape:connector-curvature="0" /></clipPath><linearGradient
       id="linearGradient96"
       spreadMethod="pad"
       gradientTransform="matrix(158.81733,0,0,158.81733,783.99198,207.67739)"
       gradientUnits="userSpaceOnUse"
       y2="0"
       x2="1"
       y1="0"
       x1="0"><stop
         id="stop92"
         offset="0"
         style="stop-opacity:1;stop-color:#509547" /><stop
         id="stop94"
         offset="1"
         style="stop-opacity:1;stop-color:#85d053" /></linearGradient><clipPath
       id="clipPath106"
       clipPathUnits="userSpaceOnUse"><path
         id="path104"
         d="m 1230.46,1910.56 c 0,0 293.81,-623.23 785.58,-875.77 0,0 182.74,290.68 35.63,595.94 0,0 -28.3,-92.26 -50.52,-125.46 0,0 26.73,177.02 -93.17,269.7 0,0 10.44,-72.3 -15.87,-101.12 0,0 -33.18,157.69 -154.53,203.86 0,0 32,-60.28 18.1,-97.96 0,0 -75.86,146.34 -163.5,187.2 0,0 15.59,-42.82 2.11,-67.81 0,0 -102.97,92.15 -285.79,203.75 -182.83,111.6 -306.93,339.93 -315.387,475.69 0,0 -111.633,-589.32 45.507,-979.6 0,0 -27.43,2.98 -58.557,23.02 0,0 34.687,-109.07 112.717,-152.8 0,0 -16.31,-15.44 -48.49,-27.06 0,0 49.57,-39.67 124.13,-92.82 0,0 -35.71,-24.29 -48.79,-36.59 0,0 70.88,-68.92 130.37,-96.19 0,0 -38.47,-11.49 -54.84,-26.85 0,0 111.14,-101.95 202.66,-120.7 0,0 -29.17,-9.41 -74.28,-38.95 0,0 246.56,-239.778 651.82,-77.618 0,0 272.82,-211.801 334.1,-181.973 61.28,29.84 -226.64,165.91 -317.05,219.563 -90.42,53.638 -619.55,397.348 -761.95,920.548 z"
         inkscape:connector-curvature="0" /></clipPath><linearGradient
       id="linearGradient112"
       spreadMethod="pad"
       gradientTransform="matrix(181.77066,0,0,181.77066,127.28773,843.58937)"
       gradientUnits="userSpaceOnUse"
       y2="0"
       x2="1"
       y1="0"
       x1="0"><stop
         id="stop108"
         offset="0"
         style="stop-opacity:1;stop-color:#509547" /><stop
         id="stop110"
         offset="1"
         style="stop-opacity:1;stop-color:#85d053" /></linearGradient><clipPath
       id="clipPath122"
       clipPathUnits="userSpaceOnUse"><path
         id="path120"
         d="m 1906.84,5863.68 c 0,0 134.6,254.23 -14.87,517.67 0,0 -13.71,-68.34 -65,-147.91 0,0 31.73,209.15 -147.86,388.13 -168.87,168.29 -478.94,438.96 -387.8,789.63 0,0 -290.94,-287.63 -257.86,-582.17 0,0 -55.165,35.17 -64.774,86.62 0,0 -141.047,-649.71 255.174,-934.4 0,0 -67.94,-1.46 -157.85,19.05 0,0 339.25,-433.33 778.38,-218.15 0,0 -505.13,214.39 -610.5,891.77 0,0 136.07,-590.19 638.59,-852.69 0,0 184.14,-119.2 245.87,-351.93 l 61.55,18.53 c 0,0 -14.83,175.8 -273.05,375.85 z"
         inkscape:connector-curvature="0" /></clipPath><linearGradient
       id="linearGradient128"
       spreadMethod="pad"
       gradientTransform="matrix(164.748,0,0,164.748,125.90426,207.96672)"
       gradientUnits="userSpaceOnUse"
       y2="0"
       x2="1"
       y1="0"
       x1="0"><stop
         id="stop124"
         offset="0"
         style="stop-opacity:1;stop-color:#509547" /><stop
         id="stop126"
         offset="1"
         style="stop-opacity:1;stop-color:#85d053" /></linearGradient><clipPath
       id="clipPath138"
       clipPathUnits="userSpaceOnUse"><path
         id="path136"
         d="m 6622.76,1095.64 c 0,0 -38.31,-113.038 -45.53,-216.941 -65.04,50.012 -654.7,521.141 -756.88,1238.981 0,0 185.8,-599.02 566.78,-945.59 0,0 235.17,385.2 -3.31,643.86 -238.48,258.67 -590.77,457.37 -616.92,798.85 0,0 -582.07,-1271.73 512.41,-1528.26 0,0 155.64,-187.892 291.14,-270.208 l 5.64,25.699 c 0.11,-9.32 0.53,-18.453 1.38,-27.242 l 52.77,15.852 c 0,0 -0.11,579.279 388.21,960.189 0,0 -264.42,-356.37 -302.23,-719.37 0,0 291.82,34.89 365.83,272.95 69.05,222.15 12.78,529.58 196.7,687.92 0,0 -969.25,-204.28 -655.99,-936.69 z"
         inkscape:connector-curvature="0" /></clipPath><linearGradient
       id="linearGradient144"
       spreadMethod="pad"
       gradientTransform="matrix(222.19733,0,0,222.19733,748.30265,838.02804)"
       gradientUnits="userSpaceOnUse"
       y2="0"
       x2="1"
       y1="0"
       x1="0"><stop
         id="stop140"
         offset="0"
         style="stop-opacity:1;stop-color:#509547" /><stop
         id="stop142"
         offset="1"
         style="stop-opacity:1;stop-color:#85d053" /></linearGradient><clipPath
       id="clipPath154"
       clipPathUnits="userSpaceOnUse"><path
         id="path152"
         d="m 4866.16,3905.2 c -49.14,-152.47 -250.55,-197.09 -367.95,-296.1 -125.79,-106.07 -72.17,-292.5 -72.17,-292.5 211.07,116.11 360.01,368.32 360.01,368.32 -106.73,-269.81 -357.21,-418.5 -449.46,-465.66 19.88,147.33 -16.21,347.79 -16.21,347.79 473.65,915.78 -758.33,1270.92 -758.33,1270.92 222.42,-221.78 150.7,-586.19 188.84,-906.6 38.15,-320.41 446.46,-386.86 446.46,-386.86 -14.45,472.15 -322.02,957.31 -322.02,957.31 427.06,-485.05 415.95,-1154.57 411.25,-1261.22 -76.38,55.84 -175.64,95.55 -175.64,95.55 -323.77,654.94 -1043.99,101.14 -1043.99,101.14 220.02,33.82 400.78,-188.7 596.8,-272.99 210.06,-90.32 408.33,92.3 408.33,92.3 -275.58,190.04 -681.59,218.17 -681.59,218.17 496.99,43.59 900.7,-301.8 900.7,-301.8 l 6.1,3.92 -1.28,-7.63 c 72.52,22.65 168.69,96.7 168.69,96.7 525.83,-2.68 401.46,639.24 401.46,639.24 z"
         inkscape:connector-curvature="0" /></clipPath><linearGradient
       id="linearGradient160"
       spreadMethod="pad"
       gradientTransform="matrix(371.14878,0,0,371.14878,70.425007,256.00049)"
       gradientUnits="userSpaceOnUse"
       y2="0"
       x2="1"
       y1="0"
       x1="0"><stop
         id="stop156"
         offset="0"
         style="stop-opacity:1;stop-color:#509547" /><stop
         id="stop158"
         offset="1"
         style="stop-opacity:1;stop-color:#85d053" /></linearGradient><clipPath
       id="clipPath170"
       clipPathUnits="userSpaceOnUse"><path
         id="path168"
         d="m 2472,4150.39 c -3.92,16.06 -20.11,25.9 -36.17,21.99 -24.65,-6.01 -47.52,-13.1 -71.01,-20.33 -23.28,-7.31 -46.37,-15.18 -69.35,-23.36 l -34.3,-12.71 -34.02,-13.57 c -11.38,-4.4 -22.55,-9.39 -33.74,-14.29 -11.15,-5.03 -22.53,-9.47 -33.43,-15.1 l -32.97,-16.21 c -11,-5.37 -21.64,-11.6 -32.46,-17.35 -21.79,-11.25 -42.54,-24.69 -63.63,-37.33 -10.42,-6.58 -20.45,-13.9 -30.68,-20.81 -10.22,-6.94 -20.4,-13.92 -29.99,-21.92 l -28.96,-23.43 c -9.38,-8.63 -18.61,-17.6 -27.85,-26.4 -4.52,-4.43 -9.41,-8.81 -13.6,-13.3 l -11.73,-13.65 -11.73,-13.66 -5.86,-6.81 -1.47,-1.71 -0.36,-0.43 -0.95,-1.12 -0.18,-0.25 -0.69,-0.97 -2.79,-3.89 c -15.47,-20.25 -28.15,-42.63 -38.55,-65.75 -21.01,-46.4 -30.53,-96.83 -32.02,-146.36 -0.55,-24.84 1.26,-49.54 4.56,-73.86 3.39,-24.31 8.2,-48.33 14.86,-71.76 6.58,-23.44 14.41,-46.44 23.6,-68.82 4.78,-11.35 9.77,-22.6 15.14,-33.65 -5.87,-17.27 -10.29,-34.99 -15.42,-52.51 -5.61,-18.76 -9.77,-37.92 -14.59,-56.91 -4.84,-18.98 -8.4,-38.31 -12.66,-57.47 -3.5,-19.35 -7.4,-38.59 -10.2,-58.16 -0.23,-1.43 -0.43,-2.85 -0.65,-4.27 -8.36,7.15 -16.73,14.28 -24.91,21.63 -21.08,19.54 -43.05,38.12 -63.33,58.51 l -30.94,30.01 -30.12,30.84 c -20.39,20.27 -39.4,41.82 -58.83,62.99 -9.86,10.46 -18.79,21.74 -28.24,32.56 -9.21,11.03 -18.9,21.66 -27.73,33 -17.99,22.41 -35.92,44.87 -53.15,67.88 -17.76,22.62 -34.1,46.28 -50.9,69.64 -15.99,23.89 -32.51,47.48 -47.5,72.04 -15.51,24.26 -30.14,49.04 -45.02,73.72 -14.19,25.06 -28.51,50.09 -41.71,75.73 -6.88,12.68 -13.27,25.6 -19.64,38.54 -6.43,12.92 -12.93,25.81 -19.02,38.89 -12.57,26 -24.37,52.39 -35.64,79.01 -11.24,26.63 -21.95,53.51 -32.21,80.6 -10.43,27.03 -19.72,54.49 -28.75,82.06 -17.85,55.21 -33.83,111.23 -44.85,168.6 1.43,-29.21 5.09,-58.33 9.53,-87.3 4.64,-28.94 10.24,-57.75 16.54,-86.44 6.72,-28.57 13.76,-57.12 21.97,-85.34 7.85,-28.35 16.92,-56.35 26.59,-84.15 9.64,-27.81 19.86,-55.45 30.89,-82.78 5.3,-13.76 11,-27.35 17.02,-40.8 5.87,-13.52 11.78,-27.04 18.17,-40.33 12.24,-26.85 25.64,-53.14 38.94,-79.5 13.96,-26.01 27.72,-52.18 43.09,-77.41 14.67,-25.66 30.9,-50.37 46.63,-75.4 16.54,-24.49 32.67,-49.29 50.23,-73.09 16.83,-24.35 35.49,-47.32 53.66,-70.66 8.98,-11.75 18.83,-22.8 28.21,-34.24 6.84,-7.99 13.52,-16.13 20.37,-24.12 -25.83,3.57 -51.42,8.66 -76.62,14.96 -39.13,9.64 -77.48,22.14 -114.45,37.67 -36.98,15.49 -72.82,33.44 -106.77,54.37 -34.02,20.81 -65.99,44.67 -95.95,70.63 -29.93,26.04 -57.5,54.63 -82.48,85.27 -6.43,7.51 -12.44,15.35 -18.27,23.34 -5.91,7.92 -11.94,15.73 -17.31,24.04 -5.34,8.11 -11.47,16.53 -16.17,24.36 l -7.9,12.99 -6.822,12.44 c -18.231,33.71 -31.965,70.65 -42.059,108.3 -10.019,37.8 -16.703,76.64 -20.504,115.91 -7.632,78.55 -6.179,158.4 1.305,237.79 7.297,79.46 20.93,158.45 37.035,236.95 16.383,78.48 36.365,156.32 59.275,233.32 9.29,31.24 19.19,62.29 29.44,93.23 4.31,-24.69 9.76,-49.15 16.6,-73.24 19.83,-71.29 50.87,-139.42 91.29,-201.25 20.23,-30.87 42.35,-60.54 66.92,-88 24.51,-27.47 50.66,-53.43 78.47,-77.37 28.19,-24.02 56.85,-44.93 84.02,-66.98 27.36,-22.08 54.53,-44.53 80.55,-67.97 51.97,-46.9 101.15,-96.85 141.29,-153.14 20.02,-28.12 37.65,-57.86 51.84,-89.19 14.21,-31.3 24.85,-64.18 31.91,-97.95 7.01,-33.8 10.1,-68.52 9.84,-103.39 -0.12,-34.9 -4.23,-69.85 -10.03,-104.56 -2.69,-17.41 -6.83,-34.57 -10.57,-51.84 -4.54,-17.07 -8.65,-34.31 -13.95,-51.22 -9.62,-34.15 -21.87,-67.54 -34.34,-100.88 15.06,32.23 29.99,64.66 42.38,98.18 12.7,33.39 23.56,67.61 31.82,102.6 8.38,34.93 14.72,70.64 16.73,106.89 2.24,36.22 1.02,72.87 -4.45,109.1 -10.6,72.69 -40.29,142.12 -80.21,203.31 -20,30.65 -42.14,59.82 -66.24,87.01 -24.02,27.27 -49.37,53.16 -75.45,78.12 -26.09,24.99 -53.08,48.71 -80.37,72.16 -27.44,23.53 -55.36,45.8 -81.03,68.27 -25.69,22.95 -49.65,47.68 -72.02,73.69 -22.42,25.98 -42.4,53.91 -60.61,82.85 -36.24,58.01 -63.7,121.28 -81.91,187.07 -9.13,32.9 -15.65,66.51 -19.71,100.33 -1.97,16.9 -3.37,33.88 -3.99,50.77 -0.3,8.45 -0.48,16.9 -0.34,25.24 0.08,8.12 0.42,17.16 1.03,23.89 l 0.05,0.57 c 1.13,12.73 -6.12,25.21 -18.61,30.15 -15.21,6.03 -32.43,-1.41 -38.46,-16.63 -15.39,-38.85 -29.04,-77.01 -42.19,-115.91 -12.912,-38.85 -25.084,-77.91 -36.502,-117.21 -22.863,-78.57 -42.77,-158.05 -59.043,-238.44 -16.309,-80.37 -27.906,-161.85 -34.238,-244.01 -3.161,-41.08 -4.668,-82.38 -4.293,-123.75 0.25,-41.37 2.754,-82.87 8.257,-124.16 5.27,-41.29 13.582,-82.41 25.571,-122.66 12.14,-40.24 27.957,-79.46 49.433,-116.47 l 8.278,-13.96 8.433,-12.66 c 6.153,-9.28 12.367,-16.99 18.547,-25.54 6.027,-8.48 12.727,-16.45 19.307,-24.49 6.5,-8.13 13.17,-16.09 20.26,-23.71 27.63,-31.03 57.84,-59.72 90.26,-85.54 32.37,-25.9 67.26,-48.45 103.49,-68.12 36.28,-19.59 74.04,-36.25 112.83,-49.61 38.81,-13.32 78.6,-23.4 118.79,-30.5 27.09,-4.59 54.43,-7.73 81.8,-9.11 1.74,-1.98 3.4,-4.04 5.19,-5.98 19.78,-21.99 39.16,-44.37 59.94,-65.43 10.27,-10.64 20.34,-21.5 30.85,-31.89 l 31.99,-30.74 c 21.02,-20.83 43.6,-39.96 65.51,-59.8 22.27,-19.45 45.43,-37.84 68.1,-56.78 4.51,-3.78 10.21,-6.2 16.52,-6.62 15.83,-1.05 29.5,10.94 30.55,26.76 l 0.04,0.74 c 0.56,8.41 1.35,18.05 2.4,27.23 0.89,9.29 1.92,18.63 3.18,27.97 2.1,18.69 5.33,37.37 8.14,56.06 3.58,18.59 6.45,37.33 10.6,55.85 4.15,18.5 7.61,37.18 12.53,55.53 l 6.93,27.65 c 2.21,9.25 4.55,18.46 7.22,27.58 5.23,18.27 9.95,36.73 15.6,54.89 l 17.44,54.41 c 6.14,18.02 13,35.8 19.48,53.74 6.1,18.08 13.38,35.71 20.62,53.36 7.43,17.57 13.83,35.65 22.11,52.86 l 24,52.1 c 3.79,8.8 8.03,17.38 12.5,25.84 l 13.1,25.56 13.11,25.6 6.57,12.81 7.21,12.43 28.57,50.06 c 9.1,17.01 20.07,32.79 30.25,49.16 l 30.91,49 -36.84,-44.77 c -12.26,-14.99 -24.73,-29.89 -35.63,-45.89 l -33.83,-47.37 -8.36,-11.95 -7.72,-12.33 -15.45,-24.7 -15.47,-24.73 c -5.26,-8.2 -10.31,-16.52 -14.9,-25.09 l -28.05,-51.22 c -9.61,-16.98 -17.36,-34.87 -26.13,-52.28 -8.58,-17.52 -17.25,-35.01 -24.68,-53.05 -7.5,-18 -15.39,-35.87 -22.57,-54.03 l -20.57,-54.87 c -6.23,-17.11 -11.69,-34.5 -17.48,-51.79 -3.2,9.64 -6.28,19.32 -8.99,29.08 -6.63,22.92 -11.93,46.16 -15.88,69.52 -7.89,46.66 -11.13,93.99 -6.16,140.15 4.71,46.04 16.53,91.09 38.05,130.92 10.85,19.79 22.58,39.09 37.25,56.24 l 2.61,3.3 0.47,0.61 0.15,0.14 1.54,1.63 6.2,6.53 12.39,13.05 12.38,13.06 c 4.2,4.05 8.54,7.4 12.79,11.14 l 25.53,21.87 28.05,20.47 c 4.69,3.39 9.13,7.07 14.03,10.22 l 14.67,9.46 c 9.84,6.22 19.4,12.8 29.44,18.74 20.43,11.38 40.32,23.52 61.53,33.67 10.52,5.18 20.78,10.8 31.49,15.63 l 32.07,14.6 c 21.56,9.37 43.09,18.89 65.05,27.43 l 32.96,12.78 33.29,11.97 c 13.71,4.72 27.49,9.27 41.29,13.72 -8.76,-12.03 -17.23,-24.26 -24.96,-36.99 l -9.63,-15.44 -8.88,-15.91 -8.84,-15.94 -8,-16.4 c -5.35,-10.93 -10.68,-21.87 -15.02,-33.3 -4.38,-11.4 -9.47,-22.48 -12.85,-34.29 -3.56,-11.71 -7.77,-23.18 -10.73,-35.08 l -8.36,-35.81 c -3.78,-24.28 -7.91,-48.52 -8.22,-73.19 l -0.87,-18.42 c -0.12,-6.13 0.51,-12.3 0.74,-18.43 l 0.98,-18.43 0.58,-9.19 0.3,-4.6 0.34,-3.72 1.59,-17.36 c 0.39,-5.6 0.47,-10.74 0.74,-16.15 0.35,-5.29 0.27,-10.79 0.19,-16.31 -0.11,-5.51 0.08,-11.04 -0.39,-16.52 -0.76,-22.05 -3.91,-43.95 -8.32,-65.57 -4.51,-21.6 -10.7,-42.9 -18.67,-63.54 -7.96,-20.64 -17.67,-40.64 -29.19,-59.61 -11.44,-19.01 -24.99,-36.72 -40.04,-53.04 -29.96,-32.79 -67.61,-58.95 -110.14,-73.77 -21.23,-7.44 -43.69,-11.78 -66.5,-12.83 -22.84,-1.27 -45.98,1.09 -68.76,6.04 21.81,-8.24 45.01,-13.25 68.66,-14.98 23.67,-1.55 47.73,0.54 71.15,6.02 47,10.9 90.26,36.22 126.09,68.91 35.92,32.93 63.8,73.96 84.5,118.04 10.49,22.05 18.57,45.2 24.67,68.85 6.06,23.64 10.72,47.75 12.81,72.14 0.8,6.08 0.93,12.19 1.35,18.31 0.39,6.09 0.76,12.19 0.69,18.53 0.02,6.22 0.16,12.71 0.03,18.72 l -0.72,17.42 -0.77,33.75 c -0.03,5.47 -0.49,10.94 -0.2,16.41 l 1.31,16.39 c 0.85,21.91 5.32,43.49 9.25,65.04 l 8.46,31.86 c 2.95,10.59 7.16,20.85 10.63,31.29 3.27,10.51 8.32,20.45 12.53,30.65 4.04,10.27 9.07,20.15 14.1,30.02 l 7.49,14.84 8.31,14.43 8.32,14.43 9.06,14.01 c 11.9,18.78 25.13,36.73 38.75,54.29 7.05,8.56 13.98,17.29 21.4,25.45 7.11,8.24 15.17,16.56 22.02,23.33 l 0.62,0.59 c 7.21,7.15 10.61,17.79 8.03,28.38 z"
         inkscape:connector-curvature="0" /></clipPath><linearGradient
       id="linearGradient176"
       spreadMethod="pad"
       gradientTransform="matrix(212.99733,0,0,212.99733,116.7168,534.81338)"
       gradientUnits="userSpaceOnUse"
       y2="0"
       x2="1"
       y1="0"
       x1="0"><stop
         id="stop172"
         offset="0"
         style="stop-opacity:1;stop-color:#509547" /><stop
         id="stop174"
         offset="1"
         style="stop-opacity:1;stop-color:#85d053" /></linearGradient><clipPath
       id="clipPath186"
       clipPathUnits="userSpaceOnUse"><path
         id="path184"
         d="m 6774.37,3484.35 c 17.28,31.49 31.27,65.19 42.66,99.38 11.3,34.27 19.97,69.35 25.25,104.81 10.86,70.78 7.59,143.69 -14.32,210.62 -10.98,33.36 -25.72,65.46 -45.12,94.67 -19.57,29.01 -41.83,56.26 -67.58,80.2 -5.97,6.4 -13.14,11.67 -19.71,17.48 -6.82,5.56 -13.11,11.69 -20.34,16.79 -14.41,10.2 -27.99,21.37 -43.33,30.32 l -22.41,14.12 c -7.57,4.56 -15.53,8.54 -23.27,12.84 l -48.11,26.19 c -32.05,17.62 -64.12,34.21 -95.53,55.48 l -47.38,30.39 -45.04,33.03 c -30.64,21.28 -58.34,46.34 -87.13,70.1 -14.32,11.98 -27.33,25.44 -41.05,38.12 l -20.34,19.29 c -6.84,6.38 -12.93,13.52 -19.42,20.24 -12.73,13.71 -25.77,27.16 -38.24,41.12 l -36.12,43.11 c -23.19,29.46 -45.86,59.47 -66.41,91.01 -21.02,31.23 -39.96,63.93 -57.87,97.31 -8.44,17.02 -17.28,33.78 -24.83,51.43 -3.97,8.68 -7.78,17.51 -11.31,26.59 -1.8,4.53 -3.66,8.92 -5.33,13.71 -1.72,4.76 -3.38,9.08 -5.21,14.89 l 75.13,-0.49 c -9.48,-34.68 -17.67,-72.37 -24.63,-109.13 -7.04,-37.01 -12.92,-74.29 -17.89,-111.63 -9.89,-74.72 -14.95,-149.94 -15.53,-224.8 -0.13,-37.42 0.43,-74.76 2.58,-111.93 2.13,-37.16 5.04,-74.18 9.94,-110.84 4.65,-36.68 10.4,-73.13 18.15,-109.03 7.54,-35.94 16.33,-71.56 27.65,-106.26 11.27,-34.69 23.7,-68.97 38.76,-102.05 14.86,-33.18 32.18,-65.16 51.8,-95.63 19.22,-30.76 40.69,-60.14 64.33,-87.83 23.96,-27.38 49.96,-53.08 77.47,-77.39 27.5,-24.39 57.71,-45.71 88.69,-66.15 30.97,-20.59 64.03,-38.14 97.71,-54.88 34,-16.04 68.72,-31.37 104.65,-43.93 35.71,-13.3 72.38,-24.35 109.37,-35.2 l -1.74,-9.84 c -19.24,2.12 -38.68,3.64 -57.98,6.29 -19.2,3.12 -38.62,5.62 -57.71,9.8 -9.6,1.9 -19.22,3.82 -28.79,5.94 l -28.52,7.29 c -19.17,4.48 -37.76,11.02 -56.76,16.56 -37.18,13.25 -74.29,27.66 -109.98,45.7 -35.52,18.19 -70.32,38.51 -103.03,62.16 -32.88,23.4 -63.89,49.68 -92.71,78.36 -28.59,28.87 -55.06,59.96 -79.13,92.85 -23.76,33.09 -44.98,68.01 -63.47,104.22 -18.46,36.19 -34.98,73.39 -48.37,111.61 -27.26,76.32 -44.07,155.52 -53.61,234.91 -4.47,39.75 -7.52,79.54 -8.34,119.3 -0.86,39.75 -0.47,79.43 1.74,118.94 4.11,79.04 13.76,157.34 26.76,234.86 6.68,38.74 14.29,77.28 23.12,115.59 8.92,38.56 18.43,75.84 30.49,115.07 l 0.22,0.69 c 6.32,20.6 28.15,32.16 48.75,25.83 13.15,-4.05 22.69,-14.68 26.16,-27.01 0.8,-2.93 2.24,-7.2 3.49,-11.06 1.2,-3.89 2.77,-7.95 4.21,-11.96 2.81,-8.03 5.96,-16.07 9.33,-24.11 6.24,-16.14 13.96,-31.97 21.18,-47.9 15.59,-31.46 32.23,-62.62 51,-92.6 18.3,-30.27 38.75,-59.26 59.73,-87.87 l 32.84,-41.97 c 11.39,-13.63 23.36,-26.8 35.02,-40.24 5.96,-6.6 11.5,-13.61 17.83,-19.88 l 18.77,-19.01 c 12.68,-12.49 24.64,-25.79 37.94,-37.68 26.76,-23.56 52.44,-48.52 81.18,-69.87 l 42.17,-33.18 43.81,-30.21 c 28.3,-20.9 60.71,-38.78 91.81,-57.74 l 46.92,-28.21 c 8.02,-4.91 16.23,-9.47 24.07,-14.66 l 23.26,-16.07 c 15.81,-10.2 30.05,-22.84 44.92,-34.4 7.45,-5.78 14.05,-12.69 21.1,-18.97 6.83,-6.56 14.16,-12.53 20.4,-19.73 26.64,-27.01 49.62,-57.59 69.43,-89.95 19.65,-32.56 34.19,-68.05 44.42,-104.43 20.45,-73.05 20.39,-150.13 5.87,-222.88 -7.29,-36.45 -18.01,-72.03 -31.3,-106.46 -13.43,-34.44 -29.21,-67.74 -48.64,-99.35 z"
         inkscape:connector-curvature="0" /></clipPath><linearGradient
       id="linearGradient192"
       spreadMethod="pad"
       gradientTransform="matrix(135.81733,0,0,135.81733,780.59998,515.40938)"
       gradientUnits="userSpaceOnUse"
       y2="0"
       x2="1"
       y1="0"
       x1="0"><stop
         id="stop188"
         offset="0"
         style="stop-opacity:1;stop-color:#509547" /><stop
         id="stop190"
         offset="1"
         style="stop-opacity:1;stop-color:#85d053" /></linearGradient><clipPath
       id="clipPath202"
       clipPathUnits="userSpaceOnUse"><path
         id="path200"
         d="m 6150.42,4213.87 c 0.01,0 5.16,-21.64 18.27,-58.59 13.26,-36.81 33.95,-88.8 64.15,-148.44 29.82,-59.79 69.32,-127.04 116.44,-195.43 12.11,-16.91 23.96,-34.34 37.08,-51.22 6.41,-8.53 12.86,-17.1 19.34,-25.73 6.69,-8.45 13.41,-16.96 20.16,-25.5 26.92,-34.17 56.12,-67.36 85.77,-100 15.44,-15.8 30.38,-31.99 46.18,-47.25 16.07,-15.03 31.69,-30.29 47.92,-44.69 32.59,-28.48 64.67,-56.5 95.72,-83.63 15.63,-13.41 30.82,-26.79 45.38,-40.27 14.94,-13.05 29.5,-25.93 43.49,-38.75 13.94,-12.86 28.09,-24.72 41.52,-36.55 13.34,-11.95 26.19,-23.61 38.9,-34.38 25.33,-21.64 47.98,-42.56 68.88,-60.17 20.59,-18.27 38.55,-34.2 53.34,-47.31 14.83,-13.24 26.43,-23.88 34.22,-31.39 7.83,-7.44 11.9,-11.62 11.9,-11.62 l -5.02,-8.65 c 0,0 -5.56,1.64 -15.82,5.1 -10.3,3.4 -25.21,8.76 -44.13,15.89 -19.04,6.93 -41.25,17.01 -66.64,28.99 -25.61,11.61 -53.37,26.73 -83.41,43.83 -15.26,8.19 -30.2,18.16 -46.03,28.01 -15.48,10.34 -32.15,20.19 -47.96,32.12 -16.1,11.56 -32.67,23.46 -49.12,36.22 -16.19,13.1 -32.43,26.87 -48.75,41.09 -16.02,14.57 -31.69,30.07 -47.37,45.91 -15.75,15.76 -30.42,33.02 -45.77,49.75 -15.11,16.97 -29.6,34.78 -44.58,52.16 -14.49,17.79 -29.04,35.66 -43.59,53.52 -13.97,18.34 -28.35,36.29 -41.85,54.81 -13.31,18.68 -27.08,36.84 -39.48,55.8 -6.33,9.37 -12.64,18.71 -18.91,28 -5.94,9.49 -11.87,18.94 -17.76,28.34 -11.92,18.66 -22.56,37.83 -33.42,56.37 -20.92,37.6 -40.46,74.25 -56.75,110.1 -16.71,35.61 -30.85,70.01 -43.04,102.02 -12.36,31.95 -21.7,61.97 -29.84,88.5 -7.94,26.63 -13.79,50.14 -18.15,69.57 -8.58,38.89 -11.11,61.73 -11.11,61.73 z"
         inkscape:connector-curvature="0" /></clipPath><linearGradient
       id="linearGradient208"
       spreadMethod="pad"
       gradientTransform="matrix(119.8008,0,0,119.8008,818.74398,577.45605)"
       gradientUnits="userSpaceOnUse"
       y2="0"
       x2="1"
       y1="0"
       x1="0"><stop
         id="stop204"
         offset="0"
         style="stop-opacity:1;stop-color:#509547" /><stop
         id="stop206"
         offset="1"
         style="stop-opacity:1;stop-color:#85d053" /></linearGradient><clipPath
       id="clipPath218"
       clipPathUnits="userSpaceOnUse"><path
         id="path216"
         d="m 4450.8,5730.73 c 18.06,40.73 32.3,83.33 42.92,126.49 2.61,10.81 5,21.65 6.99,32.57 1.16,5.42 2,10.89 2.82,16.37 0.8,5.47 1.87,10.91 2.45,16.41 l 1.83,16.45 c 0.68,5.48 0.96,10.99 1.37,16.48 0.35,5.49 0.82,10.97 0.82,16.45 v 16.43 l 13.94,-7.4 c -9.38,-6.43 -18.8,-12.37 -28.39,-18.17 -9.53,-5.81 -19.38,-11.26 -29.32,-16.52 -4.89,-2.75 -10.17,-4.96 -15.22,-7.46 -5.06,-2.52 -10.26,-4.87 -15.7,-6.84 -5.45,-1.95 -10.53,-4.45 -16.31,-5.95 l -17.32,-4.54 -20.65,-5.39 8.2,21.24 c 3.38,8.76 6.59,18.3 9.56,27.61 3.01,9.37 5.72,18.85 8.36,28.34 5.15,19.02 9.62,38.24 13.33,57.57 7.48,38.65 11.82,77.82 12.49,116.84 0.58,39 -2.76,77.88 -10.99,115.39 l -3.28,14.01 -3.93,13.79 c -2.6,9.2 -5.9,18.15 -9.18,27.08 -3.55,8.83 -7.1,17.64 -11.38,26.09 -3.83,8.68 -8.86,16.72 -13.29,25.05 l 36.37,5.07 c -1.32,-5.32 -2.6,-9.62 -4.03,-14.29 -1.46,-4.53 -2.9,-9.08 -4.54,-13.52 -3.15,-8.96 -6.68,-17.76 -10.57,-26.43 -3.83,-8.69 -7.99,-17.27 -12.66,-25.65 -2.4,-4.16 -4.49,-8.46 -7.17,-12.5 l -7.74,-12.26 -8.6,-11.83 c -2.73,-4.03 -6.17,-7.65 -9.29,-11.45 -3.18,-3.78 -6.35,-7.56 -10.03,-10.99 -3.59,-3.48 -7.03,-7.1 -10.78,-10.46 l -11.84,-9.57 c -3.8,-3.36 -8.47,-5.75 -12.72,-8.63 -4.34,-2.76 -8.63,-5.61 -13.46,-7.65 l -14.16,-6.62 -45.88,-21.44 16.22,50.67 c 2.74,8.58 5.42,19.52 7.46,29.59 2.12,10.3 3.8,20.75 5.04,31.24 1.36,10.47 2.09,21.02 2.62,31.55 0.47,10.52 0.45,21.05 0.15,31.55 -0.44,10.49 -1.26,20.93 -2.47,31.31 -1.36,10.35 -2.98,20.65 -5.17,30.81 -2.26,10.12 -4.68,20.22 -7.94,30.03 -2.89,9.92 -6.75,19.51 -10.65,29.03 l -6.3,14.08 -7.15,13.65 c -2.23,4.63 -5.24,8.84 -7.8,13.28 -2.59,4.43 -5.31,8.77 -8.38,12.91 -2.99,4.17 -5.78,8.48 -8.92,12.54 l -9.71,11.99 c -3.08,4.11 -6.86,7.67 -10.27,11.51 -3.58,3.72 -6.81,7.73 -10.71,11.15 -7.5,7.11 -14.86,14.33 -23.06,20.74 -7.79,6.82 -16.29,12.86 -24.74,18.94 -8.26,6.31 -17.54,11.39 -26.21,17.17 -9.01,5.36 -18.37,10.23 -27.5,15.4 l 43.53,28.88 -1.86,-14.5 v -13.84 c 0,-9.21 1.96,-18.39 1.32,-27.59 -0.28,-4.6 0.6,-9.2 0.13,-13.81 -0.49,-4.61 -0.18,-9.22 -0.85,-13.84 -1.07,-9.23 -2.19,-18.49 -3.91,-27.77 -0.69,-4.64 -1.79,-9.3 -2.75,-13.95 -1,-4.65 -1.99,-9.3 -3.39,-13.97 -1.35,-4.67 -2.47,-9.34 -4.03,-14.01 l -4.94,-14 c -1.62,-4.67 -3.97,-9.32 -5.96,-13.96 l -3.17,-6.97 -3.89,-6.87 c -2.78,-4.54 -4.87,-9.21 -8.32,-13.61 l -9.76,-13.22 -69.15,-93.58 7.78,122.04 c 0.08,1.32 0.33,6.97 0.24,11.01 -0.05,4.41 -0.47,9.12 -0.7,13.67 l -1.72,14.06 -2.59,14.2 c -4.07,18.89 -9.69,37.82 -17.5,56.14 -3.85,9.19 -7.4,18.48 -12.29,27.33 -4.6,8.95 -8.79,18.08 -14.4,26.61 -5.48,8.56 -10.1,17.57 -16.21,25.83 l -17.64,25.17 c -6.33,8.13 -13.05,16.02 -19.55,24.05 -3.31,3.98 -6.44,8.1 -9.91,11.96 l -10.76,11.34 -21.31,22.94 -23.01,21.56 c -14.88,14.86 -31.81,27.72 -48.06,41.31 l -25.93,21.43 -25.04,21.35 c -16.78,13.21 -33.15,31.27 -49.49,47.33 l -12.22,12.35 c -3.83,4.28 -7.37,8.77 -11.07,13.13 l -21.75,26.47 c -7.54,8.53 -13.35,18.57 -19.92,27.9 -6.29,9.55 -13.01,18.77 -18.88,28.56 -10.77,20.26 -23.03,39.52 -31.13,61.05 l -6.7,15.73 -3.33,7.85 -2.66,8.16 -10.56,32.46 -7.59,33.25 c -2.38,11.07 -3.41,22.44 -5.14,33.58 -1.66,11.16 -1.8,22.55 -2.6,33.76 -0.38,11.25 0.06,22.55 0.33,33.74 1.37,22.49 4.48,44.62 10.75,66.39 l 6.79,-1.7 c -2.62,-21.21 -1.78,-43.12 -0.29,-64.44 1.26,-10.69 2.32,-21.35 4.18,-31.89 2.3,-10.48 3.51,-21.07 6.42,-31.36 2.94,-10.28 5.13,-20.67 8.62,-30.72 l 10.57,-29.97 12.87,-28.99 3.19,-7.22 3.85,-6.94 7.67,-13.84 c 9.47,-18.8 22.36,-35.71 33.61,-53.36 6.13,-8.53 13.1,-16.5 19.57,-24.77 6.77,-8.05 12.66,-16.71 20.37,-24.02 L 3700,6995.1 c 3.63,-3.78 7.14,-7.72 10.85,-11.37 l 11.65,-10.29 c 15.9,-13.61 29.61,-27.74 48.2,-40.62 l 51.98,-39.12 c 18.03,-13.73 36.63,-26.71 53.57,-42.1 l 25.98,-22.34 24.58,-24.18 12.15,-12.26 c 3.96,-4.19 7.62,-8.71 11.44,-13.05 7.51,-8.82 15.21,-17.48 22.55,-26.48 l 20.82,-28.18 c 7.06,-9.3 12.61,-19.84 18.94,-29.73 6.45,-9.82 11.59,-20.59 17.04,-31.12 5.68,-10.39 10.2,-21.51 14.74,-32.58 9.03,-22.17 15.74,-45.54 20.49,-69.55 l 3.02,-18.21 1.71,-18.65 c 0.19,-6.39 0.51,-12.63 0.4,-19.2 -0.22,-6.92 -0.27,-12.23 -1.62,-21.78 l -61.37,28.44 5.83,7.51 c 2.13,2.28 3.56,5.64 5.44,8.37 1.85,2.78 3.56,5.77 5.05,9.08 1.51,3.25 3.33,6.22 4.66,9.69 l 4.14,10.3 c 1.32,3.48 2.37,7.19 3.59,10.79 1.27,3.56 2.27,7.3 3.23,11.08 0.93,3.79 2.13,7.44 2.85,11.35 1.75,7.67 3.28,15.46 4.52,23.38 0.75,3.91 1.13,7.95 1.72,11.92 0.59,3.98 1.01,7.99 1.41,12.02 0.9,8.03 1.48,16.14 1.9,24.21 l 0.47,12.1 c 0.09,3.89 0.12,8.23 0.07,11.46 l -0.96,57.2 46.82,-28.33 c 10.15,-6.14 20.43,-11.99 30.41,-18.4 9.74,-6.88 19.89,-13.01 29.22,-20.55 9.46,-7.3 18.93,-14.56 27.72,-22.77 9.17,-7.72 17.54,-16.39 25.96,-24.98 4.34,-4.15 8.07,-8.94 12.07,-13.44 3.87,-4.63 8.06,-8.96 11.57,-13.9 l 10.9,-14.46 c 3.54,-4.9 6.73,-10.05 10.09,-15.07 3.43,-4.98 6.5,-10.19 9.42,-15.49 2.9,-5.31 6.2,-10.39 8.71,-15.9 l 7.92,-16.3 6.92,-16.73 c 4.27,-11.25 8.39,-22.61 11.44,-34.23 3.43,-11.54 5.93,-23.28 8.17,-35.03 2.19,-11.78 3.72,-23.62 4.9,-35.47 1.05,-11.88 1.62,-23.74 1.77,-35.61 0,-11.85 -0.33,-23.69 -1.2,-35.47 -0.93,-11.77 -2.1,-23.52 -3.96,-35.17 -1.73,-11.67 -3.94,-23.26 -6.66,-34.79 -2.8,-11.73 -5.61,-22.5 -10.07,-35.09 l -29.65,29.22 10.33,4.55 c 3.55,1.26 6.77,3.36 10.05,5.34 3.2,2.09 6.75,3.56 9.72,6.16 l 9.32,7.06 c 3,2.54 5.81,5.38 8.75,8.04 3.01,2.58 5.67,5.61 8.35,8.64 2.65,3.06 5.56,5.84 7.95,9.2 l 7.51,9.72 6.93,10.3 c 2.41,3.36 4.33,7.12 6.53,10.66 4.28,7.16 8.18,14.65 11.81,22.26 3.67,7.59 7.05,15.37 10.09,23.25 1.59,3.94 2.97,7.9 4.37,11.87 1.32,3.87 2.7,8.15 3.65,11.5 l 14.06,49.55 22.33,-44.48 c 4.75,-9.48 10.05,-18.66 14.07,-28.45 4.49,-9.58 8.16,-19.46 11.78,-29.36 3.36,-9.95 6.69,-19.95 9.26,-30.1 l 3.86,-15.23 3.13,-15.36 c 7.9,-41.02 9.65,-82.69 7.55,-123.76 -2.22,-41.08 -8.31,-81.69 -17.53,-121.41 -4.58,-19.88 -9.93,-39.55 -15.98,-58.99 -3.09,-9.72 -6.25,-19.39 -9.73,-28.98 -3.5,-9.66 -7,-19.01 -11.21,-28.8 l -12.45,15.85 14.72,3.31 c 4.94,1.04 9.88,3.26 14.84,4.82 4.98,1.57 9.89,3.59 14.76,5.79 4.88,2.2 9.86,4.07 14.66,6.53 9.68,4.68 19.29,9.57 28.74,14.85 9.44,5.23 18.87,10.79 27.86,16.46 l 14.77,9.31 -0.63,-16.72 -0.65,-17.22 c -0.08,-5.77 -0.68,-11.46 -1.26,-17.15 -0.63,-5.69 -0.94,-11.41 -1.84,-17.04 l -2.53,-16.93 c -0.81,-5.64 -2.11,-11.19 -3.14,-16.77 -1.08,-5.59 -2.2,-11.17 -3.61,-16.66 -2.52,-11.08 -5.45,-22.04 -8.59,-32.92 -6.34,-21.75 -13.59,-43.18 -21.75,-64.24 -8.21,-21.05 -17.1,-41.76 -27.27,-62.01 z"
         inkscape:connector-curvature="0" /></clipPath><linearGradient
       id="linearGradient224"
       spreadMethod="pad"
       gradientTransform="matrix(133.17573,0,0,133.17573,470.60532,193.68006)"
       gradientUnits="userSpaceOnUse"
       y2="0"
       x2="1"
       y1="0"
       x1="0"><stop
         id="stop220"
         offset="0"
         style="stop-opacity:1;stop-color:#509547" /><stop
         id="stop222"
         offset="1"
         style="stop-opacity:1;stop-color:#85d053" /></linearGradient><clipPath
       id="clipPath234"
       clipPathUnits="userSpaceOnUse"><path
         id="path232"
         d="m 4280.97,5585.17 c -30.07,1.17 -59.93,4.01 -89.73,7.81 -14.88,1.99 -29.76,4.12 -44.57,6.69 -7.42,1.15 -14.8,2.58 -22.2,4.01 -7.37,1.45 -14.79,2.73 -22.12,4.46 l -22.04,4.95 -21.9,5.63 c -7.34,1.77 -14.54,4.02 -21.79,6.14 -7.22,2.23 -14.55,4.09 -21.67,6.64 l -21.5,7.3 c -7.17,2.46 -14.15,5.43 -21.24,8.12 -7.09,2.72 -14.16,5.48 -21.04,8.75 l -20.82,9.41 -16.86,7.61 15.57,11.34 c 6.92,5.05 13.77,10.29 20.61,15.55 6.91,5.18 13.62,10.54 20.21,16.02 6.5,5.5 13.63,10.65 19.6,16.44 l 18.41,17.03 9.4,-22.38 c -9.01,0 -16.98,0.35 -25.28,1.08 -8.25,0.55 -16.36,1.69 -24.52,2.67 -8.08,1.34 -16.25,2.27 -24.25,4.01 -8.03,1.6 -16.1,3.05 -24.02,5.12 -7.94,1.96 -15.95,3.73 -23.76,6.18 -7.81,2.41 -15.8,4.35 -23.48,7.18 l -23.2,8.11 -22.75,9.28 c -7.69,2.91 -14.9,6.83 -22.37,10.23 -7.4,3.51 -14.88,6.91 -21.96,11.07 l -21.53,11.94 c -7.08,4.15 -13.88,8.74 -20.84,13.11 -6.9,4.44 -13.95,8.68 -20.45,13.71 l -19.88,14.56 c -6.79,4.66 -12.78,10.29 -19.16,15.47 l -18.88,15.85 -36.08,30.3 48.65,4.2 c 1.41,0.12 5.27,0.94 7.94,1.38 3.01,0.66 6.16,1.6 9.23,2.37 6.17,1.49 12.38,4.24 18.57,6.25 3.09,1.07 6.08,2.72 9.13,4.03 l 9.11,4.17 c 6.12,2.6 11.78,6.56 17.7,9.74 l 8.78,5.03 c 2.89,1.76 5.59,3.9 8.39,5.82 l 16.7,11.79 c 2.86,1.82 5.33,4.28 7.97,6.46 l 7.82,6.72 15.64,13.38 15.04,-39.24 c -3.73,0.02 -6.43,0.25 -9.41,0.4 -3,0.13 -5.78,0.47 -8.62,0.75 -5.7,0.51 -11.3,1.26 -16.81,2.22 -11.17,1.51 -21.96,4.22 -32.84,6.68 -10.64,3.16 -21.55,5.65 -31.88,9.71 -10.49,3.65 -20.96,7.4 -30.98,12.19 l -15.21,6.77 c -4.99,2.41 -9.78,5.23 -14.68,7.83 -9.76,5.27 -19.61,10.43 -28.67,16.85 l -13.89,9.17 c -4.7,2.98 -9.24,6.16 -13.47,9.74 l -26,20.75 -23.97,22.97 c -8.29,7.41 -15.21,16 -22.45,24.34 -7,8.51 -14.83,16.46 -21.13,25.47 l -19.12,26.92 c -6.72,8.79 -12.11,18.32 -17.56,27.83 l -16.48,28.47 c -5.25,9.61 -9.41,19.68 -14.15,29.53 l -13.81,29.72 -24.37,52.5 60.2,-11.64 7.58,-1.46 8.26,-1.35 c 5.54,-0.84 11.14,-1.54 16.72,-2.09 11.17,-1.07 22.33,-1.58 33.25,-1.47 5.4,0.24 10.87,0.29 16.1,0.87 5.35,0.32 10.38,1.23 15.49,1.92 4.85,1.1 9.91,1.87 14.33,3.41 2.24,0.7 4.67,1.2 6.65,2.14 l 6.25,2.46 -13.83,-51.01 c -8.07,10.74 -14.33,19.96 -20.95,30.02 -6.51,9.87 -12.67,19.86 -18.65,29.95 -11.88,20.19 -23.03,40.7 -33.53,61.53 -10.18,20.96 -20.05,42.07 -28.96,63.58 -4.6,10.69 -8.8,21.55 -12.83,32.46 -4.21,10.85 -8.09,21.81 -11.82,32.82 -3.88,10.97 -7.52,22 -10.8,33.16 -3.48,11.09 -6.67,22.26 -9.59,33.51 -3.08,11.21 -6.1,22.42 -8.65,33.76 -2.59,11.32 -5.63,22.53 -7.61,33.99 -2.14,11.41 -4.53,22.77 -6.46,34.2 l -5.45,34.38 c -2.96,23 -6.11,45.97 -7.82,69.07 -2.38,23.04 -2.65,46.24 -3.68,69.32 0.06,23.14 -0.53,46.23 0.71,69.29 0.41,23.08 2.79,46.07 4.75,69 0.8,11.48 2.72,22.87 4.03,34.29 1.61,11.38 2.54,22.84 4.75,34.13 4.11,22.63 7.77,45.25 13.16,67.56 2.58,11.16 4.77,22.38 7.69,33.44 l 9.19,33.06 c 5.62,22.11 13.61,43.59 20.66,65.21 7.37,21.53 16.37,42.52 24.56,63.63 l 6.66,-2.17 c -4.54,-22.18 -9.54,-44.13 -13.84,-66.19 l -5.92,-33.16 c -2.24,-10.97 -3.95,-22.05 -5.45,-33.16 l -4.79,-33.18 -3.8,-33.25 c -2.88,-22.11 -4.02,-44.37 -5.63,-66.51 -1.06,-11.04 -1.05,-22.19 -1.61,-33.25 -0.29,-11.09 -1.19,-22.13 -0.98,-33.21 -0.06,-22.16 0.01,-44.26 0.98,-66.33 0.28,-22.07 2.37,-44.08 3.76,-66.04 2.38,-21.92 4.42,-43.82 7.69,-65.57 2.61,-21.83 6.63,-43.45 10.42,-65.06 l 6.64,-32.24 c 2.32,-10.72 5.08,-21.35 7.59,-32.01 5.36,-21.24 10.7,-42.5 17.18,-63.43 3.02,-10.52 6.29,-20.97 9.84,-31.32 3.38,-10.41 6.68,-20.84 10.44,-31.11 3.55,-10.35 7.26,-20.63 11.27,-30.81 3.77,-10.26 7.96,-20.36 12.06,-30.49 8.07,-20.32 17.04,-40.23 26.26,-60.02 9.38,-19.69 19.07,-39.22 29.53,-58.24 5.28,-9.48 10.61,-18.91 16.1,-28.15 5.38,-9.05 11.48,-18.72 16.64,-26.26 l 25.47,-37.32 -39.3,-13.69 -11.04,-3.85 c -3.7,-1.38 -7.32,-2.09 -10.97,-3.05 -7.35,-2.02 -14.48,-2.92 -21.67,-4.12 -7.07,-0.71 -14.19,-1.56 -21.1,-1.71 -7.01,-0.42 -13.82,-0.24 -20.67,-0.2 -13.61,0.42 -26.95,1.65 -40.13,3.46 -6.6,0.89 -13.14,1.93 -19.69,3.17 l -9.84,1.96 -10.4,2.44 35.83,40.85 11.68,-27.54 c 4.02,-9.12 7.47,-18.58 11.94,-27.45 l 14.03,-26.28 c 4.61,-8.8 9.18,-17.67 14.94,-25.69 l 16.35,-24.77 c 5.39,-8.32 12.19,-15.47 18.19,-23.29 6.22,-7.65 12.15,-15.6 19.32,-22.32 l 20.63,-21.07 22.44,-19.05 c 3.64,-3.32 7.57,-6.24 11.65,-8.96 l 12.01,-8.47 c 7.83,-5.97 16.38,-10.73 24.86,-15.65 4.25,-2.42 8.4,-5.08 12.74,-7.34 l 13.24,-6.36 c 8.71,-4.54 17.83,-8.09 26.98,-11.6 9.02,-3.92 18.5,-6.28 27.78,-9.41 9.41,-2.41 18.87,-5.14 28.37,-6.7 4.77,-0.98 9.5,-1.77 14.2,-2.31 2.35,-0.33 4.74,-0.7 6.96,-0.84 l 6.23,-0.51 57.78,-4.73 -42.73,-34.52 -17.78,-14.35 -8.9,-7.16 c -3.01,-2.34 -5.81,-4.9 -9.11,-6.91 l -19.18,-12.71 c -3.23,-2.07 -6.32,-4.32 -9.67,-6.22 l -10.22,-5.49 c -6.92,-3.49 -13.4,-7.63 -20.68,-10.54 l -10.78,-4.55 c -3.64,-1.45 -7.11,-3.16 -10.88,-4.37 -7.63,-2.3 -14.86,-5.16 -22.81,-6.9 -3.98,-0.88 -7.82,-1.87 -11.9,-2.62 -4.5,-0.6 -7.72,-1.38 -13.55,-1.71 l 12.57,34.5 17.25,-15.38 c 5.83,-5.03 11.29,-10.54 17.52,-15.08 l 18.24,-14.22 c 5.95,-4.93 12.45,-9.08 18.8,-13.45 6.4,-4.28 12.66,-8.83 19.19,-12.92 l 19.89,-11.83 c 6.54,-4.13 13.47,-7.51 20.3,-11.13 6.89,-3.45 13.55,-7.45 20.67,-10.45 l 21.11,-9.58 21.58,-8.51 c 7.15,-2.98 14.61,-5.06 21.9,-7.64 7.3,-2.62 14.78,-4.56 22.22,-6.71 7.41,-2.27 14.96,-3.91 22.48,-5.72 7.51,-1.95 15.13,-3.1 22.71,-4.69 7.59,-1.2 15.22,-2.58 22.84,-3.39 7.52,-0.99 15.47,-1.59 22.37,-1.88 l 33.83,-1.44 -24.43,-20.94 -20.62,-17.69 c -6.81,-6.05 -14.06,-10.85 -21.06,-16.33 -7.03,-5.37 -14.13,-10.6 -21.36,-15.59 -7.16,-5.09 -14.35,-10.15 -21.71,-15.08 l -1.29,18.95 19.68,-9.81 c 6.49,-3.41 13.23,-6.36 19.99,-9.25 6.78,-2.88 13.43,-6.03 20.31,-8.69 l 20.65,-7.92 c 6.85,-2.78 13.96,-4.86 20.92,-7.31 7.01,-2.36 13.98,-4.84 21.11,-6.86 l 21.29,-6.37 21.48,-5.71 c 14.36,-3.73 28.79,-7.24 43.32,-10.32 14.51,-3.2 29.11,-5.98 43.75,-8.62 29.29,-5.1 58.85,-9.28 88.43,-11.78 z"
         inkscape:connector-curvature="0" /></clipPath><linearGradient
       id="linearGradient240"
       spreadMethod="pad"
       gradientTransform="matrix(118.28973,0,0,118.28973,452.55599,206.14805)"
       gradientUnits="userSpaceOnUse"
       y2="0"
       x2="1"
       y1="0"
       x1="0"><stop
         id="stop236"
         offset="0"
         style="stop-opacity:1;stop-color:#509547" /><stop
         id="stop238"
         offset="1"
         style="stop-opacity:1;stop-color:#85d053" /></linearGradient><clipPath
       id="clipPath250"
       clipPathUnits="userSpaceOnUse"><path
         id="path248"
         d="m 3690.63,6626.49 c 0,0 6.93,-20.97 21.5,-56.93 14.55,-35.92 36.19,-86.89 65.49,-146.4 29.31,-59.47 66.33,-127.39 109.27,-197.94 21.83,-35.06 44.77,-71 69.35,-106.62 24.22,-35.85 50.41,-71.13 77.05,-105.96 13.67,-17.15 27.3,-34.33 41.34,-51.04 14.4,-16.4 28.37,-33.04 42.99,-48.86 29.16,-31.7 58.27,-62.36 86.67,-91.73 28.08,-29.7 55.82,-57.79 82.01,-84.65 13.45,-13.04 26.25,-26.08 38.79,-38.56 12.78,-12.23 25.13,-24.05 36.99,-35.4 11.69,-11.61 23.52,-21.99 34.54,-32.2 11.06,-10.17 21.35,-20.13 31.35,-29.1 20.1,-17.99 37.63,-33.69 52.06,-46.61 29.43,-25.33 45.85,-40.95 45.85,-40.95 l -3.73,-5.94 c 0,0 -20.7,8.77 -56.23,26.13 -17.76,8.71 -38.34,20.83 -62.31,34.48 -12.04,6.75 -24,15.12 -37.07,23.39 -12.86,8.54 -26.7,17.18 -40.18,27.41 -13.74,9.94 -27.89,20.51 -42.53,31.52 -14.12,11.6 -28.88,23.45 -43.75,35.99 -29.47,25.37 -59.47,53.45 -88.65,84.25 -29.05,30.93 -57.08,64.67 -84.15,99.94 -13.67,17.53 -26.64,35.81 -40.12,53.74 -12.98,18.31 -26,36.69 -39.03,55.06 -25.41,37.16 -50.24,74.65 -73.02,112.55 -23.33,37.56 -44.1,75.8 -63.98,112.82 -19.34,37.33 -37.73,73.52 -53.49,108.63 -16.13,34.92 -30.17,68.45 -42.79,99.51 -24.84,62.27 -43.22,114.99 -54.4,152.42 -11.42,37.31 -16.55,59.12 -16.55,59.12 z"
         inkscape:connector-curvature="0" /></clipPath><linearGradient
       id="linearGradient256"
       spreadMethod="pad"
       gradientTransform="matrix(112.26426,0,0,112.26426,491.18665,257.72672)"
       gradientUnits="userSpaceOnUse"
       y2="0"
       x2="1"
       y1="0"
       x1="0"><stop
         id="stop252"
         offset="0"
         style="stop-opacity:1;stop-color:#509547" /><stop
         id="stop254"
         offset="1"
         style="stop-opacity:1;stop-color:#85d053" /></linearGradient><clipPath
       id="clipPath266"
       clipPathUnits="userSpaceOnUse"><path
         id="path264"
         d="m 4916.28,1519.91 c -0.95,12.39 -7.7,24.4 -19.15,31.3 -18.82,11.33 -43.26,5.26 -54.59,-13.55 l -0.98,-1.62 -2.56,-4.25 c -0.92,-1.6 -2.14,-3.37 -3.27,-5.09 -2.19,-3.45 -4.6,-6.91 -7.12,-10.38 -4.77,-6.98 -10.33,-13.76 -15.6,-20.61 -11.16,-13.38 -22.69,-26.63 -35.11,-39.17 -12.23,-12.7 -25.4,-24.57 -38.79,-36.19 l -20.59,-16.9 c -7.03,-5.45 -14.29,-10.61 -21.42,-15.95 -7.04,-5.48 -14.56,-10.29 -22.07,-15.13 -7.55,-4.76 -14.81,-10.02 -22.61,-14.41 -15.57,-8.8 -30.74,-18.46 -47.1,-25.99 l -24.18,-12 -24.3,-10.4 c -15.54,-7.36 -34.13,-13.3 -51.84,-19.62 l -26.7,-9.54 c -9.59,-3.16 -19.01,-7.11 -28.36,-11.25 -9.43,-3.75 -18.48,-8.89 -27.59,-13.54 -8.89,-5.18 -17.74,-10.54 -26.2,-16.5 -17.06,-11.76 -32.62,-25.86 -46.6,-41.25 -13.86,-15.55 -25.59,-33.02 -34.44,-51.62 -17.76,-37.3 -25.15,-78 -23.56,-117.19 0.74,-19.63 3.24,-38.951 7.35,-57.79 4.38,-18.77 9.82,-37.239 17.7,-54.59 -3.57,18.652 -5.64,37.39 -6.07,56.07 -0.61,18.652 0.05,37.18 2.53,55.31 4.9,36.18 16,70.89 35.39,99.55 9.7,14.24 20.36,27.62 33.18,38.88 12.82,11.21 26.6,21.23 41.74,29.32 15.13,8.05 30.94,14.95 47.47,20.45 8.22,2.81 16.5,5.47 25.11,7.45 l 27.43,7.25 c 18.3,5.08 36.17,9.29 55.55,16.52 l 28.57,9.96 27.32,11.65 c 18.44,7.34 35.86,16.94 53.67,25.8 8.83,4.55 17.19,10.01 25.82,15 8.58,5.06 17.17,10.12 25.33,15.9 8.24,5.65 16.6,11.12 24.74,16.92 l 23.79,18.33 c 15.47,12.75 30.71,25.85 45.06,40 0.96,0.91 1.84,1.92 2.79,2.85 -0.08,-1.26 -0.11,-2.52 -0.2,-3.77 -2.45,-38.26 -6.48,-76.45 -13.24,-114 -3.24,-18.8 -6.88,-37.52 -11.49,-55.93 -2.05,-9.3 -4.56,-18.43 -7.22,-27.5 -2.56,-9.14 -5.03,-18.29 -8.15,-27.18 -5.56,-18.09 -12.39,-35.62 -19.56,-52.98 l -11.46,-25.69 -12.91,-24.89 c -9.38,-16.07 -18.89,-32.18 -29.97,-47.1 -2.73,-3.76 -5.25,-7.72 -8.15,-11.34 l -8.93,-10.67 c -5.93,-7.168 -11.8,-14.43 -18.48,-20.871 -6.63,-6.457 -12.62,-13.809 -19.82,-19.68 l -21.31,-18.269 -23.03,-16.161 -5.79,-4.058 -6.16,-3.461 -12.35,-6.949 -12.3,-7.211 -12.94,-6 c -8.72,-3.801 -17.24,-8.379 -26.26,-11.641 l -27.35,-9.48 -6.88,-2.387 -7.06,-1.742 -14.13,-3.68 c -18.79,-5.66 -38.23,-8.309 -57.76,-11.621 -1.23,-0.219 -2.46,-0.34 -3.67,-0.539 2.53,1.43 5.05,2.742 7.58,4.191 20.37,12.36 40.11,26.539 60.14,40.231 18.68,15.527 38.17,30.09 55.43,46.699 17.22,16.66 34.28,32.859 48.74,50.589 7.29,8.77 14.94,16.91 21.44,25.78 6.47,8.91 12.94,17.44 18.89,26.02 6.12,8.4 11.46,17.09 16.53,25.51 4.94,8.52 10.2,16.3 14.27,24.51 8.42,16.2 15.82,31.05 21.19,44.89 5.82,13.51 9.59,25.98 12.8,35.99 2.89,10.25 4.7,18.37 5.79,23.98 1.14,5.55 1.38,8.57 1.38,8.57 0,0 -1.93,-2.32 -5.54,-6.68 -3.36,-4.37 -9.14,-10.38 -15.67,-18.23 -7.1,-7.58 -14.91,-17.05 -24.78,-27.25 -9.38,-10.47 -20.6,-21.71 -32.43,-34.05 -5.83,-6.2 -12.45,-12.28 -18.95,-18.73 -6.61,-6.38 -12.93,-13.33 -20.34,-19.71 -7.25,-6.52 -14.32,-13.47 -21.71,-20.4 -7.6,-6.71 -15.36,-13.57 -23.25,-20.55 -8.03,-6.81 -15.53,-14.34 -24.12,-20.96 -8.42,-6.78 -16.87,-13.7 -25.18,-20.88 -8.09,-7.42 -17.51,-13.458 -26.11,-20.489 -8.76,-6.859 -17.55,-13.75 -26.35,-20.621 -18.17,-13.07 -36.35,-26.141 -54.24,-39 -18.64,-11.84 -36.43,-24.449 -53.99,-36.32 -18.11,-10.93 -35.43,-22 -51.86,-32.789 -8.01,-5.801 -16.6,-9.903 -24.48,-14.801 -7.96,-4.809 -15.66,-9.449 -23.04,-13.918 -14.73,-9.133 -28.12,-18.113 -40.6,-24.813 -12.31,-7.117 -23.03,-13.578 -31.84,-19.14 -8.63,-5.469 -15.4,-9.957 -20.1,-13.141 3.7,8.121 8.77,18.871 14.48,32.492 7.03,15.7 14.45,35.121 22.66,57.578 8.6,22.372 16.48,48.141 25.06,76.372 4.52,14.062 8.01,28.992 12.06,44.39 3.81,15.442 8.12,31.37 11.37,47.98 3.45,16.57 6.78,33.66 10.12,51.16 2.96,17.55 5.44,35.58 8.27,53.89 1.37,10.84 2.63,21.83 3.83,32.89 16.62,20.26 32.63,41.08 47.55,62.76 19.24,27.26 35.92,56.28 52.1,85.7 15.36,29.84 29.3,60.61 40.57,92.53 11.13,31.92 20.97,64.57 27.33,98.11 6.24,33.53 10.13,67.61 11.39,101.92 0.94,34.29 -0.72,68.73 -4.88,102.9 -8.38,68.44 -28.54,134.99 -55.16,198.2 -26.66,63.35 -61.56,122.7 -100.75,178.49 -39.21,55.87 -83.68,107.55 -130.76,156.34 -47.46,48.44 -97.76,93.88 -150.6,136.07 -26.5,21.01 -53.49,41.37 -81.15,60.9 -27.87,19.7 -55.3,38.1 -86.03,56.21 -10.75,6.24 -24.48,7.47 -36.66,1.92 -19.98,-9.1 -28.8,-32.67 -19.69,-52.65 l 0.81,-1.78 3.99,-8.77 c 1.45,-3.09 2.78,-6.54 4.15,-9.88 2.8,-6.64 5.4,-13.5 7.86,-20.49 5.28,-13.72 9.46,-28.14 14,-42.29 8.09,-28.78 15.51,-57.9 20.99,-87.51 5.91,-29.52 9.74,-59.5 13,-89.51 l 3.65,-45.2 c 0.79,-15.1 0.95,-30.25 1.48,-45.38 0.81,-15.15 0.23,-30.31 -0.29,-45.46 -0.67,-15.15 -0.42,-30.36 -1.83,-45.49 -3.05,-30.22 -4.58,-60.66 -10.14,-90.65 l -7.06,-45.13 -9.45,-44.14 c -5.19,-29.24 -14.76,-59.75 -23.13,-89.89 l -12.83,-45.26 c -2.17,-7.89 -4.65,-15.66 -6.55,-23.65 l -5.22,-24.1 c -3.93,-15.91 -5.57,-32.49 -8.01,-48.75 -1.22,-8.14 -1.25,-16.53 -1.91,-24.75 -0.36,-8.29 -1.39,-16.47 -0.99,-24.81 -0.55,-33.19 3.36,-66.51 10.38,-98.99 7.32,-32.48 19.3,-63.89 35.12,-92.91 31.75,-58.14 78.22,-106.37 131.33,-142.18 26.56,-18 54.57,-33.43 83.52,-46.42 29.05,-12.68 58.88,-23.54 89.59,-30.45 -29.35,11.2 -57.5,24.99 -84.25,40.88 -26.79,15.76 -52.37,33.35 -75.87,53.15 -23.43,19.87 -45.1,41.53 -63.79,65.28 -18.7,23.74 -34.36,49.53 -46.3,76.71 -11.73,27.24 -20.96,55.45 -25.33,84.65 -4.22,29.16 -5.78,58.7 -3.29,88.23 0.09,7.36 1.59,14.73 2.39,22.08 1.11,7.34 1.54,14.7 3.17,22 3.19,14.57 5.09,29.26 9.49,43.64 l 5.77,21.63 c 2.07,7.19 4.74,14.25 7.06,21.37 l 15,44.63 c 9.85,29.87 20.59,58.79 28.19,91.05 l 12.33,47.38 8.9,47.58 c 6.75,31.6 9.43,63.87 13.55,95.96 1.94,16.05 2.21,32.27 3.37,48.43 1.02,16.16 2.07,32.33 1.72,48.56 -0.08,16.22 0.2,32.45 -0.19,48.67 l -2.92,48.66 c -3.01,32.37 -6.69,64.73 -12.61,96.82 -4.18,24.87 -9.73,49.55 -16.12,74.07 20.83,-14.94 41.42,-30.26 61.6,-46.1 50.76,-40.03 99.7,-82.41 145.4,-127.89 45.95,-45.2 88.87,-93.34 127.46,-144.48 19.32,-25.57 37.5,-51.92 54.31,-79.06 16.83,-27.1 32.66,-54.84 46.39,-83.55 13.83,-28.66 25.96,-58.09 36.11,-88.17 10.31,-30.05 18.05,-60.89 23.97,-92.06 5.94,-31.19 9.62,-62.84 10.91,-94.69 0.96,-31.85 -0.5,-63.84 -4.23,-95.69 -3.31,-31.93 -9.91,-63.54 -17.91,-94.88 -7.94,-31.41 -19.37,-61.86 -30.94,-92.4 -12.68,-30.04 -26.02,-60.1 -42.09,-88.8 -7.38,-14.75 -16.03,-28.76 -24.21,-43.12 -3.91,-6.64 -7.99,-13.15 -12.1,-19.67 2.55,24.42 4.62,49.29 5.74,74.56 0.97,19.46 1.28,39.14 1.54,58.88 -0.08,19.73 -0.62,39.57 -1.04,59.39 -1.37,19.8 -2.26,39.62 -4.03,59.32 -1.9,19.67 -3.78,39.27 -6.67,58.61 -1.37,9.68 -2.72,19.31 -4.07,28.9 -1.72,9.53 -3.43,19.01 -5.14,28.44 -3.17,18.87 -7.44,37.34 -11.55,55.47 -8.66,36.19 -18.38,70.82 -29.5,103.05 -10.81,32.29 -22.89,62.19 -34.98,89.28 -12.02,27.13 -24.71,51.24 -36.39,72.24 -11.76,21 -23.34,38.55 -32.93,52.83 -9.6,14.31 -18.19,24.88 -23.85,32.1 -5.84,7.15 -9.23,10.72 -9.23,10.72 0,0 1.83,-4.53 5.28,-13.03 3.45,-8.45 7.86,-21.12 13.69,-36.97 5.63,-15.97 11.91,-35.48 18.8,-57.83 6.67,-22.44 14.19,-47.61 21.11,-75.39 7.08,-27.7 14.23,-57.75 20.62,-89.73 6.78,-31.87 12.4,-65.74 17.94,-100.73 4.99,-35.08 9.9,-71.3 13.22,-108.32 3.63,-36.97 6.05,-74.62 7.78,-112.32 0.51,-18.87 1.33,-37.73 1.64,-56.54 -0.26,-18.82 0.52,-37.57 0.18,-56.18 -0.59,-18.61 -0.48,-37.1 -1.09,-55.38 -0.74,-18.28 -1.49,-36.33 -2.21,-54.1 -1.06,-17.76 -2.41,-35.22 -3.18,-52.39 -1.41,-17.13 -2.78,-33.9 -4.12,-50.21 -0.9,-16.41 -3.24,-32.19 -4.59,-47.621 -1.5,-15.399 -2.78,-30.348 -4.73,-44.59 -3.49,-28.571 -6.16,-54.977 -9.65,-78.239 -3.22,-23.3 -5.17,-43.949 -7.97,-60.679 -2.43,-15.422 -3.8,-27.84 -4.98,-36.821 -2.33,4.829 -5.45,11.071 -9.41,18.68 -4.86,9.301 -11.04,20.469 -18.38,33.16 -7.02,12.989 -16.68,26.219 -27.27,40.782 -10.82,14.32 -22.08,30.468 -35.77,45.929 -13.9,15.25 -28.83,31.207 -44.71,47.367 -8.08,7.93 -17.02,15.204 -25.77,22.911 -1.38,1.23 -2.86,2.41 -4.26,3.621 -1.91,7.39 -3.78,14.83 -6.59,21.92 -7.04,18.91 -13.62,38.23 -23.1,56.37 -8.02,18.94 -19.56,35.98 -30.4,53.65 -5.58,8.72 -12.33,16.63 -18.51,25.04 -3.19,4.12 -6.29,8.35 -9.58,12.41 l -10.69,11.5 -10.9,11.36 -5.48,5.7 -5.97,5.15 -24.09,20.6 -26.01,18.29 c -8.62,6.28 -18.21,10.86 -27.34,16.37 -9.1,5.65 -18.85,9.83 -28.58,14.16 l -14.59,6.53 c -4.9,2.08 -9.97,3.65 -14.95,5.5 -19.9,7.68 -40.47,12.97 -61.11,17.87 l -31.2,5.97 -31.39,3.98 c -20.96,1.86 -42,3.19 -62.94,3.08 -10.51,0.26 -20.96,-0.01 -31.39,-0.6 -10.45,-0.37 -20.89,-0.95 -31.24,-2 -20.8,-1.62 -41.43,-4.26 -61.95,-7.43 -20.49,-3.32 -40.83,-7.35 -61,-11.95 -20.16,-4.64 -40.24,-9.61 -59.99,-15.67 -19.84,-5.79 -39.42,-12.38 -58.92,-19.33 -19.72,-7.08 -38.26,-14.32 -58.68,-23.74 -11.25,-5.29 -20.08,-15.85 -22.48,-29 -3.93,-21.61 10.41,-42.31 32.02,-46.25 l 1.87,-0.33 4.87,-0.89 c 1.83,-0.3 3.92,-0.81 5.92,-1.25 4,-0.83 8.09,-1.86 12.23,-2.99 8.23,-1.98 16.53,-4.78 24.79,-7.29 16.47,-5.7 32.95,-11.77 49.08,-18.94 16.21,-6.93 31.97,-15.05 47.58,-23.45 l 23.11,-13.26 c 7.59,-4.64 14.98,-9.61 22.5,-14.38 7.63,-4.64 14.78,-9.96 21.97,-15.27 7.13,-5.38 14.61,-10.3 21.49,-16.03 13.75,-11.46 28.16,-22.22 41,-34.85 l 19.78,-18.351 18.35,-19.047 c 12.39,-11.91 24.52,-27.191 36.71,-41.512 L 3550.21,896 c 6.36,-7.871 13.38,-15.281 20.57,-22.539 6.85,-7.5 14.86,-14.129 22.43,-21 8.01,-6.492 16.16,-12.859 24.72,-18.66 17.04,-11.789 35.75,-21.352 55.09,-28.961 19.45,-7.442 39.94,-12.219 60.49,-13.91 41.16,-3.379 81.84,4.129 117.92,19.511 18.08,7.649 35.27,16.84 51.44,27.348 16,10.75 31.33,22.391 44.77,35.902 -16.18,-9.949 -32.97,-18.531 -50.28,-25.562 -17.22,-7.149 -34.79,-13.117 -52.61,-17.227 -35.58,-8.23 -71.97,-10.164 -105.64,-2.191 -16.75,4.027 -33.05,9.258 -48.12,17.25 -15.01,8.008 -29.28,17.359 -42.2,28.641 -12.89,11.3 -24.94,23.628 -35.95,37.14 -5.54,6.699 -10.96,13.488 -15.86,20.84 l -16.5,23.078 c -11.23,15.32 -21.51,30.531 -35.13,46.09 l -19.45,23.19 -20.57,21.43 c -13.39,14.63 -28.54,27.52 -43.15,41.03 -7.39,6.65 -15.46,12.53 -23.17,18.83 -7.78,6.23 -15.55,12.47 -23.85,18.05 -8.19,5.7 -16.28,11.58 -24.59,17.14 l -25.57,15.75 c -17.4,9.95 -35.05,19.55 -53.38,27.95 -1.2,0.56 -2.45,1.03 -3.65,1.6 1.21,0.37 2.4,0.79 3.6,1.15 36.65,11.27 73.78,21.04 111.29,28.03 18.72,3.62 37.53,6.86 56.37,9.08 9.43,1.37 18.86,2.27 28.29,2.98 9.44,0.85 18.87,1.78 28.29,2.02 18.88,1.21 37.7,1.04 56.48,0.48 l 28.09,-1.61 27.84,-3.25 c 18.35,-3.08 36.78,-6.26 54.66,-11.33 4.48,-1.22 9.08,-2.18 13.5,-3.61 l 13.14,-4.57 c 8.8,-3 17.67,-5.91 26.06,-9.88 8.39,-3.92 17.38,-6.91 25.44,-11.56 l 24.61,-13.46 23.28,-15.81 5.86,-3.97 5.41,-4.54 10.87,-9.08 11.1,-8.94 10.2,-9.98 c 6.65,-6.81 13.95,-13.15 20.2,-20.43 l 18.55,-22.22 4.67,-5.59 4.13,-5.98 8.45,-11.91 c 11.95,-15.56 21.32,-32.81 31.33,-49.9 0.63,-1.04 1.17,-2.14 1.78,-3.188 -2.21,1.838 -4.32,3.728 -6.56,5.558 -18.78,14.68 -39.04,28.1 -58.92,41.99 -21.17,11.96 -41.68,25.03 -63.33,35.28 -21.67,10.21 -42.87,20.41 -64.58,27.65 -10.79,3.72 -21.11,7.98 -31.71,10.92 -10.62,2.89 -20.89,5.92 -31.01,8.44 -10.04,2.75 -20.06,4.66 -29.72,6.43 -9.72,1.59 -18.87,3.74 -27.98,4.65 -18.13,2.13 -34.65,3.78 -49.49,3.9 -14.69,0.66 -27.69,-0.23 -38.19,-0.78 -10.61,-0.95 -18.85,-2.12 -24.48,-3.09 -5.59,-0.9 -8.51,-1.74 -8.51,-1.74 0,0 2.86,-0.99 8.22,-2.82 5.28,-1.6 12.94,-4.87 22.6,-8.19 9.6,-3.95 21.22,-7.9 34.26,-13.51 13.12,-5.06 27.61,-11.58 43.33,-18.26 7.87,-3.27 15.9,-7.29 24.24,-11.09 8.31,-3.92 17.04,-7.36 25.64,-12.03 8.66,-4.47 17.67,-8.62 26.77,-13.08 8.97,-4.72 18.14,-9.55 27.45,-14.46 9.22,-5.09 18.91,-9.44 28.15,-15.13 9.33,-5.47 18.79,-10.92 28.45,-16.13 9.81,-4.94 18.8,-11.6 28.43,-17.172 9.51,-5.758 19.06,-11.539 28.61,-17.316 18.66,-12.371 37.33,-24.731 55.7,-36.902 17.67,-13.239 35.77,-25.411 53.09,-37.61 16.63,-13.07 33.14,-25.351 49.05,-36.879 8.25,-5.441 15.13,-12.019 22.52,-17.652 7.31,-5.738 14.39,-11.277 21.18,-16.609 13.76,-10.54 26.9,-19.879 37.59,-29.18 11.02,-8.981 20.87,-16.719 29.19,-22.969 9.18,-6.891 16.3,-11.992 20.94,-15.23 -0.71,-6.211 -1.1,-9.653 -1.1,-9.653 0,0 1.3,2.754 3.7,7.84 2.13,-1.457 3.35,-2.277 3.35,-2.277 0,0 -0.74,1.668 -2.18,4.738 0.24,0.5 0.44,0.941 0.7,1.481 5.41,0.41 14.79,1.23 27.54,2.742 10.43,1.258 23.05,3.07 37.53,5.437 14.63,1.961 30.43,6.301 47.8,11.051 17.22,5.039 36.31,9.84 55.62,17.172 19.18,7.59 39.41,15.887 60.14,25.027 10.28,4.723 20.24,10.5 30.55,15.949 1.63,0.864 3.26,1.821 4.88,2.704 7.6,-0.84 15.22,-1.731 22.86,-1.602 20.17,-0.129 40.58,-0.82 60.89,1.621 20.55,0.781 40.57,5.527 60.95,9.41 10.13,2.117 19.92,5.641 29.97,8.438 4.99,1.511 10.04,2.922 15,4.551 l 14.53,5.929 14.5,6.16 7.26,3.11 6.94,3.75 27.8,15.23 26.32,17.84 c 8.93,5.84 16.6,13.18 24.99,19.781 8.52,6.489 15.88,14.141 23.37,21.7 l 11.28,11.32 c 3.68,3.851 6.94,8.031 10.44,12.031 14.24,15.889 26.47,33.249 38.37,50.829 l 16.63,27.05 14.85,27.95 c 9.16,18.94 17.87,38.13 25.19,57.75 3.96,9.74 7.41,19.61 10.56,29.56 3.36,9.91 6.52,19.87 9.19,29.93 5.87,20.02 10.71,40.26 15.01,60.57 4.16,20.34 7.61,40.78 10.46,61.27 2.79,20.5 5.26,41.03 6.6,61.65 1.61,20.6 2.39,41.25 2.81,61.94 0.37,20.96 0.16,40.86 -1.41,63.29 z"
         inkscape:connector-curvature="0" /></clipPath><linearGradient
       id="linearGradient272"
       spreadMethod="pad"
       gradientTransform="matrix(235.99066,0,0,235.99066,419.72266,849.13871)"
       gradientUnits="userSpaceOnUse"
       y2="0"
       x2="1"
       y1="0"
       x1="0"><stop
         id="stop268"
         offset="0"
         style="stop-opacity:1;stop-color:#509547" /><stop
         id="stop270"
         offset="1"
         style="stop-opacity:1;stop-color:#85d053" /></linearGradient></defs><rect
     style="fill:#d6ff9d;fill-opacity:1;stroke-width:4.03223562"
     id="rect1118"
     width="512"
     height="512"
     x="0"
     y="0" /><path
     id="path162"
     style="fill:url(#linearGradient160);fill-opacity:1;fill-rule:nonzero;stroke:none;stroke-width:0.20482485"
     d="m 438.94797,273.08082 c -10.06509,31.22964 -51.31892,40.36894 -75.3653,60.64865 -25.76492,21.72578 -14.78227,59.91127 -14.78227,59.91127 43.23244,-23.78223 73.73895,-75.44109 73.73895,-75.44109 -21.86085,55.26379 -73.16549,85.71919 -92.06058,95.37873 4.07197,-30.17685 -3.32016,-71.23603 -3.32016,-71.23603 97.01525,-187.5745 -155.32488,-260.316 -155.32488,-260.316 45.55715,45.42607 30.86721,120.06627 38.67918,185.69421 7.81412,65.62793 91.4461,79.23854 91.4461,79.23854 -2.95977,-96.70805 -65.9577,-196.08087 -65.9577,-196.08087 87.47245,99.35029 85.1969,236.48462 84.23417,258.32919 C 304.59096,397.77 284.26015,389.6364 284.26015,389.6364 217.9439,255.48842 70.425,368.92042 70.425,368.92042 c 45.06556,-6.92719 82.08965,38.65045 122.23942,55.91513 43.02551,18.49978 83.63613,-18.90532 83.63613,-18.90532 -56.44563,-38.92492 -139.60647,-44.68665 -139.60647,-44.68665 101.79586,-8.9283 184.4857,61.81613 184.4857,61.81613 l 1.24937,-0.8029 -0.26207,1.56282 c 14.85385,-4.63929 34.5519,-19.80657 34.5519,-19.80657 107.70295,0.54893 82.22899,-130.93224 82.22899,-130.93224"
     inkscape:connector-curvature="0" /></svg>